<!DOCTYPE svg PUBLIC "-//W3C//DTD SVG 1.1//EN" "http://www.w3.org/Graphics/SVG/1.1/DTD/svg11.dtd">
<!-- Uploaded to: SVG Repo, www.svgrepo.com, Transformed by: SVG Repo Mixer Tools -->
<svg width="256px" height="256px" viewBox="-2 -2 24.00 24.00" version="1.1" xmlns="http://www.w3.org/2000/svg" xmlns:xlink="http://www.w3.org/1999/xlink" fill="#a5743b" stroke="#a5743b">
<g id="SVGRepo_bgCarrier" stroke-width="0"/>
<g id="SVGRepo_tracerCarrier" stroke-linecap="round" stroke-linejoin="round" stroke="#CCCCCC" stroke-width="0.04"/>
<g id="SVGRepo_iconCarrier"> <title>emoji_minecraft_square [#409]</title> <desc>Created with Sketch.</desc> <defs> </defs> <g id="Page-1" stroke-width="0.0002" fill="none" fill-rule="evenodd"> <g id="Dribbble-Light-Preview" transform="translate(-420.000000, -6319.000000)" fill="#e9b544"> <g id="icons" transform="translate(56.000000, 160.000000)"> <path d="M376,6169 L380,6169 L380,6165 L376,6165 L376,6169 Z M368,6169 L372,6169 L372,6165 L368,6165 L368,6169 Z M382,6177 L378,6177 L378,6171 L376,6171 L376,6169 L372,6169 L372,6171 L370,6171 L370,6177 L366,6177 L366,6161 L382,6161 L382,6177 Z M372,6177 L376,6177 L376,6175 L372,6175 L372,6177 Z M364,6179 L384,6179 L384,6159 L364,6159 L364,6179 Z" id="emoji_minecraft_square-[#409]"> </path> </g> </g> </g> </g>
</svg>